:FULLY-SPECIFIED
:FORCE-ALL-JOINTS-BE-3DOF
:DEGREES
917
root 2.44545 15.9285 32.0037 0.694781 11.1716 361.918
lfemur -7.44557 12.8658 -7.35015
ltibia 22.4932 0 0
lfoot -23.5607 -8.13394 0
ltoes -16.8665 0 0
rfemur -43.741 -19.0187 4.67933
rtibia 76.5774 0 0
rfoot -0.189086 6.37444 0
rtoes -26.0958 0 0
lowerback 2.64662 -2.72529 -3.22121
upperback 0.470824 -3.89595 -4.69693
thorax -0.776033 -1.95015 -2.76888
lowerneck -7.28301 -1.82356 2.05379
upperneck 3.50086 -2.88095 4.47658
head 2.46512 -1.26072 0.933803
lclavicle -2.69171e-14 -3.56027e-14 0
lhumerus -50.8709 -44.0504 105.802
lradius 58.4042 0 0
lwrist 20.277 0 0
lhand 35.1159 18.6195 0
lfingers 7.12502 0 0
lthumb 58.0694 32.9815 0
rclavicle -2.69171e-14 -3.56027e-14 0
rhumerus -23.5956 -6.21416 -31.8707
rradius 63.6533 0 0
rwrist -19.4375 0 0
rhand -29.0496 -47.4971 0
rfingers 7.12502 0 0
rthumb -2.39325 -797.053 0
918
root 2.39831 15.9056 32.0389 0.95468 10.5362 362.059
lfemur -6.91679 12.3059 -6.93021
ltibia 21.7452 0 0
lfoot -23.8924 -8.43703 0
ltoes -17.477 0 0
rfemur -43.1238 -18.6099 4.05775
rtibia 75.2565 0 0
rfoot -0.8825 6.03915 0
rtoes -26.9128 0 0
lowerback 2.37295 -2.64464 -3.09552
upperback 0.383124 -3.77439 -4.81317
thorax -0.730008 -1.89062 -2.97713
lowerneck -7.26783 -1.71364 2.1115
upperneck 3.4381 -2.73416 4.44505
head 2.43706 -1.18965 0.920404
lclavicle -2.56077e-14 -3.68035e-14 0
lhumerus -51.2376 -44.0312 106.06
lradius 58.2781 0 0
lwrist 20.525 0 0
lhand 35.405 18.8724 0
lfingers 7.12502 0 0
lthumb 58.3211 33.006 0
rclavicle -2.56077e-14 -3.68035e-14 0
rhumerus -22.6874 -5.65283 -30.7599
rradius 62.6632 0 0
rwrist -19.3415 0 0
rhand -28.4957 -47.0687 0
rfingers 7.12502 0 0
rthumb -1.85866 -796.635 0
919
root 2.35117 15.8826 32.0742 1.21458 9.90074 362.201
lfemur -6.38801 11.7459 -6.51028
ltibia 20.9973 0 0
lfoot -24.2241 -8.74011 0
ltoes -18.0876 0 0
rfemur -42.5066 -18.2011 3.43616
rtibia 73.9357 0 0
rfoot -1.57591 5.70387 0
rtoes -27.7297 0 0
lowerback 2.09928 -2.56398 -2.96982
upperback 0.295424 -3.65283 -4.92941
thorax -0.683983 -1.83109 -3.18538
lowerneck -7.25265 -1.60372 2.16921
upperneck 3.37533 -2.58738 4.41352
head 2.40901 -1.11858 0.907005
lclavicle -2.42984e-14 -3.80044e-14 0
lhumerus -51.6043 -44.0119 106.318
lradius 58.1519 0 0
lwrist 20.773 0 0
lhand 35.6941 19.1252 0
lfingers 7.12502 0 0
lthumb 58.5728 33.0305 0
rclavicle -2.42984e-14 -3.80044e-14 0
rhumerus -21.7792 -5.09149 -29.649
rradius 61.6732 0 0
rwrist -19.2454 0 0
rhand -27.9417 -46.6403 0
rfingers 7.12502 0 0
rthumb -1.32408 -796.216 0
920
root 2.30404 15.8597 32.1095 1.47448 9.26533 362.343
lfemur -5.85923 11.186 -6.09034
ltibia 20.2493 0 0
lfoot -24.5559 -9.0432 0
ltoes -18.6982 0 0
rfemur -41.8895 -17.7923 2.81458
rtibia 72.6148 0 0
rfoot -2.26933 5.36858 0
rtoes -28.5467 0 0
lowerback 1.82561 -2.48332 -2.84413
upperback 0.207724 -3.53127 -5.04565
thorax -0.637959 -1.77156 -3.39364
lowerneck -7.23747 -1.4938 2.22691
upperneck 3.31256 -2.4406 4.38199
head 2.38095 -1.0475 0.893606
lclavicle -2.2989e-14 -3.92052e-14 0
lhumerus -51.971 -43.9926 106.576
lradius 58.0258 0 0
lwrist 21.0211 0 0
lhand 35.9832 19.378 0
lfingers 7.12502 0 0
lthumb 58.8245 33.055 0
rclavicle -2.2989e-14 -3.92052e-14 0
rhumerus -20.8711 -4.53016 -28.5382
rradius 60.6831 0 0
rwrist -19.1494 0 0
rhand -27.3878 -46.2119 0
rfingers 7.12502 0 0
rthumb -0.789496 -795.797 0
921
root 2.2569 15.8367 32.1448 1.73438 8.62992 362.484
lfemur -5.33045 10.6261 -5.67041
ltibia 19.5013 0 0
lfoot -24.8876 -9.34628 0
ltoes -19.3087 0 0
rfemur -41.2723 -17.3834 2.19299
rtibia 71.2939 0 0
rfoot -2.96274 5.03329 0
rtoes -29.3637 0 0
lowerback 1.55194 -2.40266 -2.71844
upperback 0.120024 -3.40972 -5.16189
thorax -0.591934 -1.71204 -3.60189
lowerneck -7.22228 -1.38389 2.28462
upperneck 3.24979 -2.29381 4.35046
head 2.3529 -0.976431 0.880207
lclavicle -2.16797e-14 -4.0406e-14 0
lhumerus -52.3377 -43.9734 106.834
lradius 57.8997 0 0
lwrist 21.2691 0 0
lhand 36.2723 19.6309 0
lfingers 7.12502 0 0
lthumb 59.0762 33.0795 0
rclavicle -2.16797e-14 -4.0406e-14 0
rhumerus -19.9629 -3.96883 -27.4273
rradius 59.693 0 0
rwrist -19.0534 0 0
rhand -26.8338 -45.7835 0
rfingers 7.12502 0 0
rthumb -0.254912 -795.379 0
922
root 2.20976 15.8138 32.18 1.99427 7.99451 362.626
lfemur -4.80167 10.0661 -5.25047
ltibia 18.7533 0 0
lfoot -25.2193 -9.64936 0
ltoes -19.9193 0 0
rfemur -40.6551 -16.9746 1.57141
rtibia 69.973 0 0
rfoot -3.65616 4.698 0
rtoes -30.1807 0 0
lowerback 1.27827 -2.322 -2.59275
upperback 0.0323235 -3.28816 -5.27813
thorax -0.545909 -1.65251 -3.81014
lowerneck -7.2071 -1.27397 2.34233
upperneck 3.18703 -2.14703 4.31893
head 2.32484 -0.905357 0.866807
lclavicle -2.03704e-14 -4.16068e-14 0
lhumerus -52.7044 -43.9541 107.091
lradius 57.7735 0 0
lwrist 21.5172 0 0
lhand 36.5613 19.8837 0
lfingers 7.12502 0 0
lthumb 59.3279 33.104 0
rclavicle -2.03704e-14 -4.16068e-14 0
rhumerus -19.0547 -3.4075 -26.3164
rradius 58.7029 0 0
rwrist -18.9574 0 0
rhand -26.2799 -45.3552 0
rfingers 7.12502 0 0
rthumb 0.279671 -794.96 0
923
root 2.16262 15.7909 32.2153 2.25417 7.3591 362.768
lfemur -4.27289 9.5062 -4.83053
ltibia 18.0053 0 0
lfoot -25.551 -9.95245 0
ltoes -20.5298 0 0
rfemur -40.0379 -16.5658 0.949825
rtibia 68.6522 0 0
rfoot -4.34957 4.36272 0
rtoes -30.9977 0 0
lowerback 1.0046 -2.24134 -2.46705
upperback -0.0553767 -3.1666 -5.39437
thorax -0.499884 -1.59298 -4.01839
lowerneck -7.19192 -1.16405 2.40004
upperneck 3.12426 -2.00025 4.2874
head 2.29679 -0.834283 0.853408
lclavicle -1.9061e-14 -4.28077e-14 0
lhumerus -53.0711 -43.9349 107.349
lradius 57.6474 0 0
lwrist 21.7652 0 0
lhand 36.8504 20.1366 0
lfingers 7.12502 0 0
lthumb 59.5796 33.1285 0
rclavicle -1.9061e-14 -4.28077e-14 0
rhumerus -18.1466 -2.84617 -25.2056
rradius 57.7128 0 0
rwrist -18.8614 0 0
rhand -25.726 -44.9268 0
rfingers 7.12502 0 0
rthumb 0.814254 -794.542 0
924
root 2.11548 15.7679 32.2506 2.51407 6.72368 362.909
lfemur -3.74411 8.94626 -4.4106
ltibia 17.2573 0 0
lfoot -25.8828 -10.2555 0
ltoes -21.1404 0 0
rfemur -39.4207 -16.157 0.328241
rtibia 67.3313 0 0
rfoot -5.04299 4.02743 0
rtoes -31.8147 0 0
lowerback 0.730934 -2.16068 -2.34136
upperback -0.143077 -3.04504 -5.51061
thorax -0.45386 -1.53345 -4.22664
lowerneck -7.17674 -1.05413 2.45775
upperneck 3.06149 -1.85347 4.25587
head 2.26873 -0.76321 0.840009
lclavicle -1.77517e-14 -4.40085e-14 0
lhumerus -53.4378 -43.9156 107.607
lradius 57.5213 0 0
lwrist 22.0133 0 0
lhand 37.1395 20.3894 0
lfingers 7.12502 0 0
lthumb 59.8313 33.153 0
rclavicle -1.77517e-14 -4.40085e-14 0
rhumerus -17.2384 -2.28484 -24.0947
rradius 56.7228 0 0
rwrist -18.7653 0 0
rhand -25.172 -44.4984 0
rfingers 7.12502 0 0
rthumb 1.34884 -794.123 0
925
root 2.06834 15.745 32.2858 2.77397 6.08827 363.051
lfemur -3.21534 8.38633 -3.99066
ltibia 16.5094 0 0
lfoot -26.2145 -10.5586 0
ltoes -21.751 0 0
rfemur -38.8035 -15.7481 -0.293343
rtibia 66.0104 0 0
rfoot -5.7364 3.69214 0
rtoes -32.6317 0 0
lowerback 0.457264 -2.08002 -2.21567
upperback -0.230777 -2.92349 -5.62685
thorax -0.407835 -1.47392 -4.43489
lowerneck -7.16156 -0.944214 2.51546
upperneck 2.99873 -1.70668 4.22433
head 2.24068 -0.692136 0.82661
lclavicle -1.64423e-14 -4.52093e-14 0
lhumerus -53.8046 -43.8964 107.865
lradius 57.3951 0 0
lwrist 22.2613 0 0
lhand 37.4286 20.6423 0
lfingers 7.12502 0 0
lthumb 60.083 33.1775 0
rclavicle -1.64423e-14 -4.52093e-14 0
rhumerus -16.3302 -1.72351 -22.9839
rradius 55.7327 0 0
rwrist -18.6693 0 0
rhand -24.6181 -44.07 0
rfingers 7.12502 0 0
rthumb 1.88342 -793.705 0
